<svg width="96" height="97" viewBox="0 0 96 97" fill="none" xmlns="http://www.w3.org/2000/svg">
<path d="M47.2258 80.6357C69.3712 80.6357 76.374 71.84 76.9467 60.6937C76.9993 59.671 76.7796 58.6387 76.0728 57.8977C73.9283 55.6495 67.1452 51.1424 47.2258 51.1424C27.3065 51.1424 20.5233 55.6495 18.3788 57.8977C17.672 58.6387 17.4523 59.671 17.5049 60.6937C18.0776 71.84 25.0804 80.6357 47.2258 80.6357Z" fill="#FFAC2F"/>
<path fill-rule="evenodd" clip-rule="evenodd" d="M76.0876 57.8836L77.52 56.5173C78.7465 57.8031 79.0124 59.4676 78.9441 60.7964C78.6366 66.7809 76.5721 72.379 71.4086 76.4197C66.3202 80.4015 58.5155 82.6357 47.2258 82.6357C35.9361 82.6357 28.1314 80.4015 23.043 76.4197C17.8795 72.379 15.815 66.7809 15.5075 60.7964C15.4392 59.4676 15.7051 57.8031 16.9316 56.5173C19.6275 53.6909 27.0772 49.1424 47.2258 49.1424C67.3744 49.1424 74.8241 53.6909 77.52 56.5173L76.0876 57.8836ZM76.9467 60.6937C76.374 71.84 69.3712 80.6357 47.2258 80.6357C25.0804 80.6357 18.0776 71.84 17.5049 60.6937C17.4523 59.671 17.672 58.6387 18.3788 57.8977C20.5233 55.6495 27.3065 51.1424 47.2258 51.1424C67.1452 51.1424 73.9283 55.6495 76.0728 57.8977C76.7796 58.6387 76.9993 59.671 76.9467 60.6937Z" fill="#AF5826"/>
<path fill-rule="evenodd" clip-rule="evenodd" d="M76.9467 60.6937C76.374 71.84 69.3712 80.6357 47.2258 80.6357C37.6129 80.6357 30.8532 78.9783 26.2342 76.1908C30.0655 77.2939 35.0579 78.0083 41.4756 78.2118C60.2713 78.8076 67.1448 74.2547 68.5176 68.0406C68.8272 66.6394 68.3377 65.2147 67.0973 64.4931C64.4498 62.9527 57.8682 60.6039 42.0496 60.1025C27.72 59.6482 20.859 61.1869 17.6578 62.4987C17.5866 61.9048 17.5362 61.3027 17.5049 60.6937C17.4523 59.671 17.672 58.6386 18.3788 57.8976C20.5233 55.6494 27.3064 51.1423 47.2258 51.1423C67.1451 51.1423 73.9283 55.6494 76.0728 57.8976C76.7796 58.6386 76.9993 59.671 76.9467 60.6937Z" fill="#CE8415"/>
<path d="M17.4658 60.1423C17.4658 66.2175 30.779 71.1423 47.2017 71.1423C63.6243 71.1423 76.9375 66.2175 76.9375 60.1423C76.9375 54.0672 63.6243 49.1423 47.2017 49.1423C30.779 49.1423 17.4658 54.0672 17.4658 60.1423Z" fill="#884C05"/>
<path fill-rule="evenodd" clip-rule="evenodd" d="M25.4814 69.7963C31.1369 71.8884 38.8166 73.1423 47.2017 73.1423C55.5867 73.1423 63.2664 71.8884 68.922 69.7963C71.742 68.7531 74.1639 67.4631 75.9174 65.9295C77.6668 64.3995 78.9375 62.4494 78.9375 60.1423C78.9375 57.8353 77.6668 55.8852 75.9174 54.3552C74.1639 52.8216 71.742 51.5316 68.922 50.4884C63.2664 48.3962 55.5867 47.1423 47.2017 47.1423C38.8166 47.1423 31.1369 48.3962 25.4814 50.4884C22.6613 51.5316 20.2394 52.8216 18.4859 54.3552C16.7366 55.8852 15.4658 57.8353 15.4658 60.1423C15.4658 62.4494 16.7366 64.3995 18.4859 65.9295C20.2394 67.4631 22.6613 68.7531 25.4814 69.7963ZM47.2017 71.1423C30.779 71.1423 17.4658 66.2175 17.4658 60.1423C17.4658 54.0672 30.779 49.1423 47.2017 49.1423C63.6243 49.1423 76.9375 54.0672 76.9375 60.1423C76.9375 66.2175 63.6243 71.1423 47.2017 71.1423Z" fill="#602902"/>
<path fill-rule="evenodd" clip-rule="evenodd" d="M74.1371 62.6925C73.8542 62.2182 73.2404 62.063 72.766 62.3459C70.5019 63.6965 63.9662 66.5938 56.4014 67.0818C55.8503 67.1174 55.4323 67.593 55.4679 68.1441C55.5035 68.6953 55.9791 69.1132 56.5302 69.0777C64.4654 68.5657 71.3048 65.5463 73.7906 64.0636C74.2649 63.7806 74.4201 63.1668 74.1371 62.6925Z" fill="#602902"/>
<path fill-rule="evenodd" clip-rule="evenodd" d="M53.2828 51.9016C53.2188 52.7275 53.8365 53.4489 54.6625 53.5129C56.3425 53.6431 58.9756 54.6342 61.7106 56.234C64.4154 57.8162 66.992 59.8608 68.6042 61.8884C69.1198 62.5369 70.0634 62.6446 70.7119 62.129C71.3603 61.6134 71.468 60.6698 70.9524 60.0214C69.0363 57.6115 66.13 55.3436 63.2254 53.6445C60.351 51.9631 57.2483 50.7042 54.8942 50.5219C54.0682 50.4579 53.3468 51.0756 53.2828 51.9016Z" fill="#441A03"/>
<path fill-rule="evenodd" clip-rule="evenodd" d="M28.6328 54.165C28.4382 54.9702 28.9331 55.7808 29.7383 55.9754C31.7303 56.457 35.1242 58.2712 38.5546 60.5805C41.9579 62.8715 45.1137 65.4574 46.6661 67.2972C47.2003 67.9304 48.1466 68.0106 48.7798 67.4764C49.413 66.9421 49.4932 65.9958 48.9589 65.3626C47.1363 63.2025 43.7063 60.4321 40.2299 58.0919C36.7808 55.7699 33.0013 53.6779 30.4433 53.0594C29.6381 52.8648 28.8275 53.3597 28.6328 54.165Z" fill="#441A03"/>
<path fill-rule="evenodd" clip-rule="evenodd" d="M27.5317 62.1461C29.8107 63.6428 32.1305 65.621 33.8173 67.515C34.3683 68.1336 35.3165 68.1885 35.9351 67.6375C36.5538 67.0865 36.6086 66.1383 36.0576 65.5197C34.1819 63.4136 31.6581 61.2669 29.1785 59.6385C27.9364 58.8228 26.6775 58.1187 25.491 57.6137C24.3283 57.1188 23.1255 56.7673 22.0283 56.7673C21.1999 56.7673 20.5283 57.4389 20.5283 58.2673C20.5283 59.0958 21.1999 59.7673 22.0283 59.7673C22.5419 59.7673 23.3129 59.9471 24.3161 60.3741C25.2954 60.7909 26.3945 61.3993 27.5317 62.1461Z" fill="#441A03"/>
<path fill-rule="evenodd" clip-rule="evenodd" d="M38.6328 51.4213C38.4381 52.2265 38.9331 53.0371 39.7383 53.2318C41.7577 53.72 45.6353 55.6467 49.5339 58.0872C53.4331 60.5282 56.9942 63.2597 58.5062 65.1917C59.0168 65.8441 59.9596 65.9591 60.612 65.4485C61.2643 64.9379 61.3793 63.9952 60.8688 63.3428C59.0058 60.9623 55.0435 57.997 51.1257 55.5444C47.2071 53.0913 42.974 50.9276 40.4433 50.3158C39.6381 50.1211 38.8275 50.6161 38.6328 51.4213Z" fill="#441A03"/>
<path d="M13.4375 52.7673C20.8125 56.3923 40.5625 58.6423 48.6875 61.7673C58.0625 57.6423 76.5625 56.8923 82.5625 51.8923C75.4625 43.4923 56.0208 38.684 48.0625 36.8923C27.1625 41.5923 16.1042 48.7257 13.4375 52.7673Z" fill="#FFD028"/>
<path fill-rule="evenodd" clip-rule="evenodd" d="M49.493 63.598C49.0098 63.8106 48.4622 63.8235 47.9696 63.634C44.4459 62.2788 38.5286 61.0739 32.2155 59.7885C31.6069 59.6646 30.9946 59.5399 30.3805 59.4143C26.9435 58.7112 23.4869 57.984 20.4196 57.2013C17.3794 56.4255 14.5944 55.5645 12.5553 54.5622C12.0398 54.3089 11.6581 53.8461 11.5075 53.2918C11.3569 52.7376 11.4518 52.1453 11.7681 51.6659C13.3982 49.1954 17.2204 46.2078 23.0129 43.2905C28.8929 40.329 37.0416 37.3208 47.6237 34.9411C47.9128 34.8761 48.2127 34.8761 48.5018 34.9412C52.5057 35.8426 59.4569 37.5151 66.3238 40.0368C73.0942 42.523 80.175 45.9695 84.09 50.6013C84.4339 51.0082 84.6013 51.5356 84.5549 52.0664C84.5085 52.5973 84.2522 53.0877 83.8429 53.4288C82.0268 54.9422 79.4297 56.0197 76.6445 56.8762C73.8175 57.7456 70.5648 58.4534 67.2883 59.118C66.4243 59.2933 65.5608 59.4655 64.7025 59.6366C58.9104 60.7913 53.3543 61.899 49.493 63.598ZM14.7677 51.1831C18.9089 47.0437 29.6782 41.0266 48.0625 36.8923C55.5504 38.5781 73.204 42.9344 81.1789 50.4401C81.6799 50.9117 82.1428 51.3958 82.5625 51.8923C82.0819 52.2928 81.5211 52.6661 80.8912 53.016C77.0794 55.1333 70.7376 56.3955 64.3286 57.6711C58.575 58.8163 52.7672 59.9723 48.6875 61.7673C44.9967 60.3478 38.9071 59.1088 32.6683 57.8394C26.215 56.5265 19.6021 55.181 15.3193 53.5696C14.6278 53.3095 13.997 53.0424 13.4375 52.7673C13.7585 52.2808 14.2011 51.7496 14.7677 51.1831Z" fill="#D7AA0C"/>
<path d="M76.9375 43.1423C76.9375 46.5883 73.4219 50.4443 67.8125 52.5173C62.0625 54.6423 54.6048 55.2673 47.2017 55.2673C39.7985 55.2673 31.9402 53.5629 26.625 52.5173C19 51.0173 17.4658 46.4789 17.4658 43.1423C17.4658 37.0672 30.779 32.1423 47.2017 32.1423C63.6243 32.1423 76.9375 37.0672 76.9375 43.1423Z" fill="#F02B1E"/>
<path fill-rule="evenodd" clip-rule="evenodd" d="M25.4814 33.4884C31.1369 31.3962 38.8166 30.1423 47.2017 30.1423C55.5867 30.1423 63.2664 31.3962 68.922 33.4884C71.742 34.5316 74.1639 35.8216 75.9174 37.3552C77.6668 38.8852 78.9375 40.8353 78.9375 43.1423C78.9375 45.5445 77.7275 47.8392 75.9246 49.7263C74.1027 51.6333 71.5492 53.2686 68.5058 54.3933C62.4116 56.6455 54.6613 57.2673 47.2017 57.2673C40.2266 57.2673 32.8891 55.8044 27.6745 54.7647C27.1758 54.6653 26.6966 54.5698 26.239 54.4797C22.0663 53.6589 19.2985 51.9469 17.6003 49.7373C15.9175 47.5477 15.4658 45.1045 15.4658 43.1423C15.4658 40.8353 16.7366 38.8852 18.4859 37.3552C20.2394 35.8216 22.6613 34.5316 25.4814 33.4884ZM67.8125 52.5173C73.4219 50.4443 76.9375 46.5883 76.9375 43.1423C76.9375 37.0672 63.6243 32.1423 47.2017 32.1423C30.779 32.1423 17.4658 37.0672 17.4658 43.1423C17.4658 46.4789 19 51.0173 26.625 52.5173C27.0831 52.6075 27.5602 52.7025 28.0542 52.8009C33.2915 53.8441 40.4366 55.2673 47.2017 55.2673C54.6048 55.2673 62.0625 54.6423 67.8125 52.5173Z" fill="#A41006"/>
<path d="M15.9375 38.1423C13.8125 41.5173 14.5781 45.4443 20.1875 47.5173C23.1331 48.6059 28.0059 47.6609 33.25 48.0798C38.2428 48.4787 38.0766 50.1423 45.5 51.0798C49.5703 51.5939 53.5512 49.459 59.25 48.0798C63.9445 46.9437 71.5 49.0798 74.375 47.5798C81.2648 43.9852 79 40.9548 77.5 37.5173C75.5752 33.1065 63.6243 27.1423 47.2016 27.1423C30.779 27.1423 18.2352 34.493 15.9375 38.1423Z" fill="#32CE24"/>
<path fill-rule="evenodd" clip-rule="evenodd" d="M68.509 28.8104C62.9854 26.6743 55.6461 25.1423 47.2017 25.1423C38.6973 25.1423 31.1938 27.0441 25.5 29.4291C22.6532 30.6216 20.2342 31.9452 18.3524 33.2338C16.5206 34.4883 15.0377 35.8178 14.245 37.0767C12.945 39.1415 12.3862 41.6247 13.2907 44.0237C14.1901 46.4089 16.3568 48.2338 19.4942 49.3933C21.3795 50.0901 23.7161 50.0958 25.8995 50.0492C26.3282 50.0401 26.7589 50.0284 27.192 50.0166C29.1032 49.9645 31.06 49.9113 33.0907 50.0735C35.1496 50.238 36.1387 50.6215 37.4806 51.142C37.5667 51.1753 37.6541 51.2092 37.7434 51.2437C39.3713 51.872 41.3447 52.5709 45.2494 53.0641C47.7034 53.374 50.04 52.8713 52.3207 52.2108C53.1815 51.9615 54.0142 51.6975 54.858 51.4299C56.3681 50.9511 57.9139 50.4609 59.7204 50.0237C61.6724 49.5513 64.3309 49.7432 67.2537 49.9541L67.3509 49.9611C68.7527 50.0622 70.209 50.1615 71.5069 50.1304C72.7559 50.1005 74.1555 49.9502 75.3001 49.353C78.9456 47.451 80.9019 45.322 81.0794 42.6208C81.1606 41.3842 80.8401 40.2557 80.481 39.3187C80.2611 38.7449 79.9598 38.0905 79.6933 37.5119C79.5595 37.2213 79.4345 36.9499 79.3331 36.7174C78.642 35.1338 77.1981 33.6766 75.4274 32.4091C73.6132 31.1105 71.2685 29.8776 68.509 28.8104ZM20.1875 47.5173C14.5781 45.4443 13.8125 41.5173 15.9375 38.1423C18.2353 34.493 30.779 27.1423 47.2017 27.1423C63.6243 27.1423 75.5753 33.1065 77.5 37.5173C77.6379 37.8332 77.7822 38.1457 77.9252 38.4555C79.339 41.5166 80.6316 44.3155 74.375 47.5798C72.8851 48.3572 70.1382 48.158 67.1839 47.9438C64.4374 47.7446 61.5117 47.5325 59.25 48.0798C57.3878 48.5305 55.7089 49.0619 54.1505 49.5552C50.9399 50.5714 48.2402 51.4259 45.5 51.0798C41.5721 50.5838 39.769 49.8844 38.2023 49.2767C36.8081 48.7359 35.6009 48.2676 33.25 48.0798C31.102 47.9082 29.0163 47.9655 27.0999 48.0181C24.3374 48.0939 21.9266 48.16 20.1875 47.5173Z" fill="#228A19"/>
<path d="M47.2258 16.9663C31.1496 16.9663 18.0506 26.1726 17.4849 37.6835C17.4597 38.1949 17.563 38.7032 17.8716 39.1117C19.3134 41.02 25.3424 46.4596 47.2258 46.4596C69.1093 46.4596 75.1383 41.02 76.58 39.1117C76.8887 38.7032 76.9919 38.1949 76.9668 37.6835C76.4011 26.1726 63.3021 16.9663 47.2258 16.9663Z" fill="#FFAC2F"/>
<path fill-rule="evenodd" clip-rule="evenodd" d="M25.3937 21.3687C31.1182 17.3701 38.8212 14.9663 47.2258 14.9663C55.6305 14.9663 63.3335 17.3701 69.058 21.3687C74.777 25.3633 78.6435 31.056 78.9644 37.5853C79.0049 38.41 78.8483 39.4272 78.1758 40.3173C76.1737 42.9672 69.3546 48.4596 47.2258 48.4596C25.097 48.4596 18.278 42.9672 16.2759 40.3173C15.6034 39.4272 15.4468 38.41 15.4873 37.5853C15.8082 31.056 19.6747 25.3633 25.3937 21.3687ZM17.4849 37.6835C18.0506 26.1726 31.1496 16.9663 47.2258 16.9663C63.3021 16.9663 76.4011 26.1726 76.9668 37.6835C76.9919 38.1949 76.8887 38.7032 76.58 39.1117C75.1383 41.02 69.1093 46.4596 47.2258 46.4596C25.3424 46.4596 19.3134 41.02 17.8716 39.1117C17.563 38.7032 17.4597 38.1949 17.4849 37.6835Z" fill="#AF5826"/>
<path d="M30.2887 30.4372C27.1934 33.3146 25.3644 36.379 23.5932 34.4737C21.822 32.5684 22.8954 28.6912 25.9908 25.8138C29.0861 22.9364 33.0311 22.1483 34.8023 24.0536C36.5735 25.9589 33.384 27.5597 30.2887 30.4372Z" fill="#FFBF5F"/>
<path fill-rule="evenodd" clip-rule="evenodd" d="M43.3072 46.3983C67.4381 43.6745 70.42 40.1696 66.9043 29.4552C65.7131 25.8247 63.8396 22.3135 61.1006 19.4404C70.2498 22.9291 76.5774 29.7604 76.9668 37.6836C76.9919 38.195 76.8887 38.7033 76.58 39.1118C75.1383 41.0201 69.1093 46.4598 47.2258 46.4598C45.8586 46.4598 44.5533 46.4386 43.3072 46.3983Z" fill="#EB981B"/>
<path d="M42.9375 34.3296C42.9375 35.6067 41.7623 36.6421 40.3125 36.6421C38.8628 36.6421 37.6875 35.6067 37.6875 34.3296C37.6875 33.0524 38.8628 32.0171 40.3125 32.0171C41.7623 32.0171 42.9375 33.0524 42.9375 34.3296Z" fill="#FFD494"/>
<path d="M58.5089 37.759C58.5089 39.0362 57.3336 40.0715 55.8839 40.0715C54.4341 40.0715 53.2589 39.0362 53.2589 37.759C53.2589 36.4819 54.4341 35.4465 55.8839 35.4465C57.3336 35.4465 58.5089 36.4819 58.5089 37.759Z" fill="#FFD494"/>
<path d="M28.7052 33.7317C28.7052 34.6787 27.8338 35.4464 26.7589 35.4464C25.6839 35.4464 24.8125 34.6787 24.8125 33.7317C24.8125 32.7848 25.6839 32.0171 26.7589 32.0171C27.8338 32.0171 28.7052 32.7848 28.7052 33.7317Z" fill="#FFD494"/>
<path d="M72.8302 34.3296C72.8302 35.2766 71.9588 36.0443 70.8839 36.0443C69.8089 36.0443 68.9375 35.2766 68.9375 34.3296C68.9375 33.3827 69.8089 32.615 70.8839 32.615C71.9588 32.615 72.8302 33.3827 72.8302 34.3296Z" fill="#FFD494"/>
<path d="M60.4552 27.0796C60.4552 28.0266 59.5838 28.7943 58.5089 28.7943C57.4339 28.7943 56.5625 28.0266 56.5625 27.0796C56.5625 26.1327 57.4339 25.365 58.5089 25.365C59.5838 25.365 60.4552 26.1327 60.4552 27.0796Z" fill="#FFD494"/>
<path d="M41.5802 23.6504C41.5802 24.5974 40.7088 25.3651 39.6339 25.3651C38.5589 25.3651 37.6875 24.5974 37.6875 23.6504C37.6875 22.7035 38.5589 21.9358 39.6339 21.9358C40.7088 21.9358 41.5802 22.7035 41.5802 23.6504Z" fill="#FFD494"/>
</svg>
